<?xml version="1.0" standalone="no"?>
<!DOCTYPE svg PUBLIC "-//W3C//DTD SVG 20010904//EN"
 "http://www.w3.org/TR/2001/REC-SVG-20010904/DTD/svg10.dtd">
<svg version="1.0" xmlns="http://www.w3.org/2000/svg"
 width="476.000000pt" height="476.000000pt" viewBox="0 0 476.000000 476.000000"
 preserveAspectRatio="xMidYMid meet">
<metadata>
Created by potrace 1.14, written by Peter Selinger 2001-2017
</metadata>
<g transform="translate(0.000000,476.000000) scale(0.100000,-0.100000)"
fill="#000000" stroke="none">
<path d="M0 2380 l0 -2380 2380 0 2380 0 0 2380 0 2380 -2380 0 -2380 0 0
-2380z m774 2288 c194 -75 647 -338 890 -516 57 -42 72 -49 92 -42 42 16 186
48 299 67 81 13 164 17 315 17 229 -1 370 -17 558 -65 l113 -29 57 43 c234
180 741 467 932 529 61 19 72 20 101 8 104 -43 187 -188 235 -410 24 -109 24
-369 -1 -555 -29 -228 -100 -552 -161 -738 l-26 -78 30 -97 c61 -191 95 -372
112 -586 32 -403 -19 -715 -165 -1021 -209 -437 -604 -788 -1082 -961 -528
-191 -1084 -156 -1588 99 -117 59 -304 179 -375 239 -311 266 -521 589 -610
938 -63 247 -69 645 -14 975 16 98 64 295 88 362 14 40 13 48 -9 125 -50 173
-90 368 -122 593 -25 177 -25 572 1 715 41 230 117 395 191 413 29 7 82 -3
139 -25z"/>
<path d="M642 4543 c-30 -68 -48 -140 -73 -289 -25 -148 -29 -419 -10 -564 32
-228 111 -498 222 -753 l70 -159 -25 -82 c-59 -195 -88 -423 -88 -696 0 -309
35 -479 142 -695 182 -369 530 -663 963 -814 260 -91 596 -110 890 -50 504
102 952 438 1164 874 113 233 149 425 140 748 -7 250 -35 445 -92 642 l-25 84
46 108 c144 343 193 497 253 803 19 95 33 311 26 405 -12 166 -72 382 -121
436 -20 23 -47 14 -235 -81 -237 -120 -454 -244 -604 -348 -75 -52 -305 -238
-305 -247 0 -2 39 -16 88 -30 110 -33 188 -62 231 -88 l34 -21 16 24 c82 123
310 353 561 566 179 151 197 163 208 137 13 -33 8 -621 -6 -723 -32 -223 -105
-501 -152 -577 -13 -22 -27 -33 -42 -33 -30 0 -36 5 -87 75 -63 85 -212 236
-306 310 -184 144 -357 238 -580 315 -359 124 -811 118 -1170 -15 -127 -47
-327 -151 -430 -224 -103 -72 -317 -285 -380 -378 -27 -41 -56 -73 -65 -73
-42 0 -94 109 -145 305 -60 227 -92 566 -81 835 10 239 -3 231 151 99 219
-187 431 -386 512 -481 43 -50 90 -105 104 -122 l26 -30 79 36 c44 19 118 48
167 64 48 15 87 33 87 39 0 5 -13 19 -29 30 -16 11 -72 57 -125 102 -114 96
-269 205 -421 299 -122 75 -525 284 -548 284 -7 0 -23 -21 -35 -47z m2274
-2050 c-92 -165 -164 -347 -178 -452 -2 -14 -9 -27 -17 -29 -12 -4 -13 12 -8
94 12 195 65 324 184 446 43 43 79 75 81 69 2 -5 -26 -63 -62 -128z m-1039 60
c118 -114 192 -296 193 -470 0 -73 -14 -98 -25 -45 -14 62 -69 231 -96 290
-15 34 -57 111 -93 171 -36 60 -66 112 -66 115 0 16 23 0 87 -61z m-814 -169
c52 -48 127 -80 256 -110 197 -45 236 -57 306 -90 236 -111 345 -321 345 -664
0 -121 -15 -126 -53 -17 -61 172 -109 250 -179 291 -24 14 -104 41 -178 61
-74 20 -168 53 -209 73 -146 73 -265 215 -321 381 -40 120 -34 135 33 75z
m2710 24 c6 -20 -30 -137 -64 -205 -59 -117 -170 -217 -312 -283 -34 -16 -123
-45 -197 -65 -143 -38 -193 -63 -234 -117 -28 -38 -70 -128 -111 -241 -15 -43
-33 -76 -39 -74 -7 2 -11 45 -10 128 2 225 55 389 161 501 111 117 214 166
453 217 172 37 238 62 292 111 47 43 54 46 61 28z m-1171 -1215 c10 -9 18 -24
18 -33 0 -18 -47 -59 -118 -104 l-44 -27 39 -34 c21 -19 62 -46 90 -61 72 -36
155 -32 242 13 33 17 62 28 65 25 15 -14 3 -45 -30 -82 -46 -51 -118 -74 -213
-68 -84 5 -147 34 -212 101 -47 48 -50 49 -64 31 -8 -10 -15 -22 -15 -27 0 -4
-27 -25 -61 -47 -109 -70 -230 -77 -330 -17 -56 33 -83 77 -62 98 7 7 26 3 64
-17 44 -23 67 -28 125 -29 66 0 75 3 145 45 40 25 75 52 76 60 2 9 -20 28 -52
48 -64 38 -115 80 -115 93 0 5 9 18 20 29 19 19 33 20 217 20 169 0 199 -2
215 -17z"/>
</g>
</svg>
