<?xml version="1.0" standalone="no"?>
<!DOCTYPE svg PUBLIC "-//W3C//DTD SVG 20010904//EN"
 "http://www.w3.org/TR/2001/REC-SVG-20010904/DTD/svg10.dtd">
<svg version="1.0" xmlns="http://www.w3.org/2000/svg"
 width="476.000000pt" height="476.000000pt" viewBox="0 0 476.000000 476.000000"
 preserveAspectRatio="xMidYMid meet">
<metadata>
Created by potrace 1.14, written by Peter Selinger 2001-2017
</metadata>
<g transform="translate(0.000000,476.000000) scale(0.100000,-0.100000)"
fill="#000000" stroke="none">
<path d="M0 2380 l0 -2380 2380 0 2380 0 0 2380 0 2380 -2380 0 -2380 0 0
-2380z m755 2290 c178 -61 669 -347 941 -548 l30 -23 75 20 c169 45 300 63
502 68 266 7 491 -19 674 -77 l63 -20 52 42 c240 195 887 548 1004 548 114 0
235 -206 273 -467 22 -147 10 -407 -29 -633 -41 -230 -107 -506 -154 -639 -15
-42 -15 -46 13 -130 38 -114 67 -237 92 -391 27 -162 37 -508 19 -658 -49
-427 -230 -789 -547 -1093 -306 -293 -674 -470 -1114 -535 -138 -20 -454 -15
-589 11 -519 96 -961 366 -1277 780 -90 119 -203 340 -257 506 -113 349 -94
951 45 1390 l21 66 -41 159 c-90 356 -122 587 -122 896 0 103 5 226 11 272 23
183 93 390 154 451 31 31 80 33 161 5z"/>
<path d="M630 4533 c-22 -60 -50 -172 -71 -293 -21 -115 -18 -499 4 -620 43
-230 109 -444 212 -684 l67 -157 -25 -92 c-65 -231 -82 -378 -81 -692 0 -231
2 -272 22 -363 111 -509 499 -929 1053 -1135 274 -103 649 -124 954 -56 341
77 667 265 891 514 203 225 321 467 372 760 43 249 -1 775 -86 1018 -19 55
-25 33 75 277 160 388 218 632 230 960 6 170 0 235 -35 374 -22 88 -81 210
-105 214 -49 9 -593 -282 -832 -447 -103 -70 -295 -231 -295 -246 0 -7 30 -20
68 -30 88 -24 218 -71 245 -90 12 -8 28 -15 37 -14 8 0 39 34 69 75 73 100
258 284 465 463 192 165 233 197 242 189 17 -18 27 -349 15 -525 -17 -262 -46
-428 -111 -639 -59 -193 -95 -216 -167 -107 -21 31 -82 103 -138 161 -55 57
-99 108 -97 114 1 5 -2 7 -7 3 -6 -3 -46 23 -90 57 -216 171 -506 307 -761
358 -282 56 -640 40 -890 -40 -185 -59 -411 -175 -553 -282 -100 -75 -266
-241 -327 -327 -81 -114 -73 -107 -103 -85 -61 45 -152 374 -182 656 -15 143
-20 496 -9 606 l7 61 31 -22 c47 -33 337 -289 450 -397 54 -52 140 -142 189
-200 49 -58 93 -109 97 -114 5 -4 42 8 84 28 42 20 119 51 171 68 52 16 95 34
95 38 0 11 -236 205 -340 280 -219 158 -727 440 -793 440 -22 0 -29 -8 -47
-57z m2315 -1975 c-104 -181 -173 -343 -205 -480 -7 -32 -17 -58 -22 -58 -5 0
-7 4 -4 9 3 4 7 53 10 107 4 107 37 218 92 313 23 38 148 171 161 171 2 0 -12
-28 -32 -62z m-1015 -68 c39 -49 95 -169 115 -245 8 -33 14 -97 14 -145 -1
-47 -3 -76 -6 -65 -30 136 -110 331 -181 448 -23 37 -42 71 -42 76 0 5 -7 14
-15 21 -8 7 -15 17 -15 22 0 14 94 -67 130 -112z m-791 -164 c27 -14 132 -45
233 -70 206 -50 266 -73 354 -138 145 -108 214 -251 233 -485 9 -108 1 -223
-14 -188 -4 11 -25 64 -46 118 -52 131 -93 192 -156 236 -18 12 -94 38 -170
57 -256 67 -397 165 -493 345 -33 62 -70 169 -70 201 0 18 5 15 40 -15 21 -20
61 -48 89 -61z m2631 68 c0 -31 -53 -171 -86 -225 -63 -105 -206 -218 -334
-265 -25 -9 -100 -31 -167 -49 -67 -18 -138 -43 -158 -55 -57 -35 -114 -129
-166 -272 -47 -132 -51 -130 -45 37 10 300 79 452 262 574 84 57 166 86 366
130 154 34 229 64 278 113 35 36 50 39 50 12z m-1168 -1212 c22 -21 22 -22 2
-43 -10 -11 -47 -40 -81 -62 -35 -23 -63 -44 -63 -48 0 -4 19 -23 41 -44 96
-87 208 -103 321 -47 76 37 93 29 54 -27 -42 -60 -102 -86 -201 -86 -98 0
-156 25 -228 97 -26 26 -50 48 -52 48 -2 0 -26 -22 -53 -49 -92 -92 -243 -120
-352 -63 -62 31 -101 75 -82 94 8 8 26 5 70 -15 86 -39 166 -38 241 4 65 36
101 67 101 86 0 7 -12 20 -27 29 -127 77 -153 105 -120 132 19 16 39 17 229
16 169 -1 180 -2 200 -22z"/>
</g>
</svg>
